<?xml version="1.0" encoding="UTF-8" standalone="no"?>
<!DOCTYPE svg PUBLIC "-//W3C//DTD SVG 1.1//EN" "http://www.w3.org/Graphics/SVG/1.1/DTD/svg11.dtd">
<svg width="100%" height="100%" viewBox="0 0 90 90" version="1.1" xmlns="http://www.w3.org/2000/svg" xmlns:xlink="http://www.w3.org/1999/xlink" xml:space="preserve" style="fill-rule:evenodd;clip-rule:evenodd;stroke-linejoin:round;stroke-miterlimit:1.41421;">
    <g transform="matrix(5.13999,-9.38531e-17,-1.01785e-16,5.12264,-7139.32,-461.494)">
        <path d="M1397.73,92.609C1399.12,92.609 1400.24,93.732 1400.24,95.117C1400.24,96.502 1399.12,97.625 1397.73,97.625C1396.35,97.625 1395.22,96.502 1395.22,95.117C1395.23,93.733 1396.35,92.611 1397.73,92.609M1400.45,99.319C1402.78,97.816 1403.45,94.711 1401.94,92.384C1400.44,90.057 1397.34,89.389 1395.01,90.892C1392.68,92.395 1392.01,95.5 1393.52,97.828C1393.9,98.425 1394.41,98.934 1395.01,99.319C1391.63,100.425 1389.25,103.457 1388.98,107.001C1388.96,107.347 1389.23,107.64 1389.57,107.657C1389.59,107.657 1389.6,107.658 1389.61,107.658L1390.87,107.658C1391.2,107.652 1391.47,107.393 1391.49,107.062C1391.82,103.614 1394.88,101.086 1398.33,101.416C1401.32,101.701 1403.69,104.07 1403.97,107.062C1403.99,107.393 1404.27,107.652 1404.6,107.658L1405.85,107.658C1406.2,107.661 1406.48,107.383 1406.49,107.037C1406.49,107.025 1406.49,107.013 1406.49,107.001C1406.21,103.456 1403.83,100.425 1400.45,99.319" style="fill:white;fill-rule:nonzero;"/>
    </g>
</svg>
