<?xml version="1.0" encoding="UTF-8" standalone="no"?>
<!DOCTYPE svg PUBLIC "-//W3C//DTD SVG 1.1//EN" "http://www.w3.org/Graphics/SVG/1.1/DTD/svg11.dtd">
<svg width="100%" height="100%" viewBox="0 0 90 90" version="1.1" xmlns="http://www.w3.org/2000/svg" xmlns:xlink="http://www.w3.org/1999/xlink" xml:space="preserve" style="fill-rule:evenodd;clip-rule:evenodd;stroke-linejoin:round;stroke-miterlimit:1.41421;">
    <g transform="matrix(4.08778,-3.59501e-16,-3.59501e-16,5.55556,-5888.29,-511.442)">
        <path d="M1458.01,106.528L1444.93,106.528L1442.18,97.232L1460.76,97.232L1458.01,106.528ZM1449.13,93.493C1449.15,93.469 1449.16,93.444 1449.17,93.419L1453.76,93.419C1453.77,93.443 1453.79,93.47 1453.8,93.493L1455.42,95.764L1447.51,95.764L1449.13,93.493ZM1461.95,95.793C1461.88,95.774 1461.81,95.764 1461.75,95.764L1457.23,95.764L1455,92.645C1454.89,92.483 1454.72,92.377 1454.54,92.34L1454.54,92.33L1454.44,92.33C1454.42,92.329 1454.4,92.323 1454.38,92.324C1454.35,92.325 1454.33,92.327 1454.31,92.33L1448.63,92.33C1448.6,92.327 1448.57,92.324 1448.54,92.324C1448.52,92.324 1448.51,92.329 1448.49,92.33L1448.47,92.33L1448.47,92.333C1448.25,92.356 1448.06,92.466 1447.94,92.645L1445.71,95.764L1441.19,95.764C1441.17,95.762 1441.14,95.762 1441.12,95.764C1440.71,95.806 1440.42,96.167 1440.46,96.57C1440.47,96.616 1440.48,96.66 1440.49,96.704L1443.67,107.468C1443.76,107.781 1444.05,107.995 1444.38,107.996L1458.56,107.996C1458.89,107.995 1459.18,107.781 1459.27,107.468L1462.45,96.704C1462.56,96.315 1462.34,95.907 1461.95,95.793" style="fill:white;fill-rule:nonzero;"/>
    </g>
</svg>
