<?xml version="1.0" encoding="UTF-8" standalone="no"?>
<!DOCTYPE svg PUBLIC "-//W3C//DTD SVG 1.1//EN" "http://www.w3.org/Graphics/SVG/1.1/DTD/svg11.dtd">
<svg width="100%" height="100%" viewBox="0 0 90 90" version="1.1" xmlns="http://www.w3.org/2000/svg" xmlns:xlink="http://www.w3.org/1999/xlink" xml:space="preserve" style="fill-rule:evenodd;clip-rule:evenodd;stroke-linejoin:round;stroke-miterlimit:1.41421;">
    <g transform="matrix(5.55556,0,0,5.55556,-7358.92,-506.485)">
        <path d="M1331.29,102.756C1328.59,102.756 1326.4,100.563 1326.4,97.866C1326.4,95.171 1328.59,92.977 1331.29,92.977C1333.99,92.977 1336.18,95.171 1336.18,97.866C1336.18,100.563 1333.99,102.756 1331.29,102.756M1340.71,105.433L1336.87,101.592C1337.6,100.498 1338,99.213 1338,97.866C1338,96.075 1337.3,94.391 1336.03,93.125C1334.76,91.858 1333.08,91.16 1331.29,91.16C1329.5,91.16 1327.81,91.858 1326.55,93.125C1325.28,94.391 1324.58,96.075 1324.58,97.866C1324.58,99.658 1325.28,101.342 1326.55,102.609C1327.81,103.875 1329.5,104.573 1331.29,104.573C1332.65,104.573 1333.95,104.169 1335.05,103.42L1338.89,107.255C1339.08,107.446 1339.43,107.404 1339.67,107.163L1340.62,106.215C1340.86,105.973 1340.9,105.623 1340.71,105.433" style="fill:white;fill-rule:nonzero;"/>
    </g>
</svg>
